<svg xmlns="http://www.w3.org/2000/svg" width="1100" height="280" viewBox="0 0 1100 280" role="img" aria-label="HyperSDK Platform by Zyvor AI Labs">
  <defs>
    <linearGradient id="bg" x1="0%" y1="0%" x2="100%" y2="100%">
      <stop offset="0%" stop-color="#0a0a0a"/>
      <stop offset="55%" stop-color="#121212"/>
      <stop offset="100%" stop-color="#1a100c"/>
    </linearGradient>
    <linearGradient id="accent" x1="0%" y1="0%" x2="100%" y2="0%">
      <stop offset="0%" stop-color="#f97316"/>
      <stop offset="50%" stop-color="#fb923c"/>
      <stop offset="100%" stop-color="#ea580c"/>
    </linearGradient>
    <linearGradient id="glow" x1="50%" y1="0%" x2="50%" y2="100%">
      <stop offset="0%" stop-color="#f97316" stop-opacity="0.35"/>
      <stop offset="100%" stop-color="#f97316" stop-opacity="0"/>
    </linearGradient>
    <filter id="soft" x="-20%" y="-20%" width="140%" height="140%">
      <feGaussianBlur stdDeviation="18" result="b"/>
      <feMerge><feMergeNode in="b"/><feMergeNode in="SourceGraphic"/></feMerge>
    </filter>
  </defs>
  <rect width="1100" height="280" rx="16" fill="url(#bg)"/>
  <rect width="1100" height="4" fill="url(#accent)"/>
  <ellipse cx="180" cy="40" rx="220" ry="80" fill="url(#glow)" filter="url(#soft)"/>
  <ellipse cx="920" cy="200" rx="260" ry="100" fill="url(#glow)" opacity="0.6" filter="url(#soft)"/>
  <g opacity="0.08" stroke="#f97316" stroke-width="1">
    <path d="M0 70h1100M0 140h1100M0 210h1100"/>
    <path d="M110 0v280M330 0v280M550 0v280M770 0v280M990 0v280"/>
  </g>
  <text x="64" y="118" fill="#fafafa" font-family="ui-sans-serif, system-ui, -apple-system, Segoe UI, sans-serif" font-size="52" font-weight="700" letter-spacing="-1">HyperSDK Platform</text>
  <text x="64" y="158" fill="#f97316" font-family="ui-sans-serif, system-ui, sans-serif" font-size="22" font-weight="600" letter-spacing="0.12em">ZEUS SUITE</text>
  <text x="64" y="198" fill="#a1a1aa" font-family="ui-sans-serif, system-ui, sans-serif" font-size="20">Enterprise VM migration · VMware exit · Kubernetes era</text>
  <text x="64" y="232" fill="#71717a" font-family="ui-sans-serif, system-ui, sans-serif" font-size="16">Engineered by Zyvor AI Labs</text>
  <g transform="translate(820 88)">
    <rect width="220" height="104" rx="12" fill="#18181b" stroke="#27272a" stroke-width="1"/>
    <text x="20" y="34" fill="#fafafa" font-family="ui-monospace, SFMono-Regular, Menlo, monospace" font-size="14" font-weight="600">12 products</text>
    <text x="20" y="58" fill="#a1a1aa" font-family="ui-monospace, monospace" font-size="13">2,000+ APIs</text>
    <text x="20" y="82" fill="#a1a1aa" font-family="ui-monospace, monospace" font-size="13">96.8% first-boot</text>
  </g>
</svg>
